<svg width="122" height="37" viewBox="0 0 122 37" fill="none" xmlns="http://www.w3.org/2000/svg">
<rect x="0.5" y="1" width="121" height="35" rx="17.5" stroke="#18244E"/>
<path d="M8.25406 23.5L10.9781 14.86H13.0961L15.8201 23.5H14.3321L11.8601 15.748H12.1841L9.74206 23.5H8.25406ZM9.77206 21.628V20.278H14.3081V21.628H9.77206ZM18.746 23.5V16.216H15.95V14.86H22.988V16.216H20.192V23.5H18.746ZM27.2182 23.5V16.216H24.4222V14.86H31.4602V16.216H28.6642V23.5H27.2182ZM32.0652 23.5L34.7892 14.86H36.9072L39.6312 23.5H38.1432L35.6712 15.748H35.9952L33.5532 23.5H32.0652ZM33.5832 21.628V20.278H38.1192V21.628H33.5832ZM44.6156 23.68C43.7516 23.68 43.0116 23.492 42.3956 23.116C41.7796 22.736 41.3056 22.208 40.9736 21.532C40.6456 20.856 40.4816 20.072 40.4816 19.18C40.4816 18.288 40.6456 17.504 40.9736 16.828C41.3056 16.152 41.7796 15.626 42.3956 15.25C43.0116 14.87 43.7516 14.68 44.6156 14.68C45.6116 14.68 46.4416 14.93 47.1056 15.43C47.7696 15.926 48.2356 16.596 48.5036 17.44L47.0456 17.842C46.8776 17.278 46.5916 16.838 46.1876 16.522C45.7836 16.202 45.2596 16.042 44.6156 16.042C44.0356 16.042 43.5516 16.172 43.1636 16.432C42.7796 16.692 42.4896 17.058 42.2936 17.53C42.1016 17.998 42.0036 18.548 41.9996 19.18C41.9996 19.812 42.0956 20.364 42.2876 20.836C42.4836 21.304 42.7756 21.668 43.1636 21.928C43.5516 22.188 44.0356 22.318 44.6156 22.318C45.2596 22.318 45.7836 22.158 46.1876 21.838C46.5916 21.518 46.8776 21.078 47.0456 20.518L48.5036 20.92C48.2356 21.764 47.7696 22.436 47.1056 22.936C46.4416 23.432 45.6116 23.68 44.6156 23.68ZM50.3009 23.5V14.86H51.7469V18.496H55.8389V14.86H57.2789V23.5H55.8389V19.852H51.7469V23.5H50.3009ZM62.3234 23.5V14.86H67.5254V16.306H63.7694V18.46H66.8054V19.9H63.7694V23.5H62.3234ZM69.2047 23.5V14.86H70.6507V23.5H69.2047ZM73.048 23.5V14.86H74.494V22.144H78.31V23.5H73.048ZM79.8064 23.5V14.86H85.3864V16.216H81.2524V18.346H84.6664V19.702H81.2524V22.144H85.3864V23.5H79.8064Z" fill="#18244E"/>
<path fill-rule="evenodd" clip-rule="evenodd" d="M98.7478 26.5C97.3426 26.5 96.0209 25.9527 95.027 24.9589C92.9756 22.9074 92.9756 19.5687 95.027 17.5173L102.044 10.5L103.14 11.5963L96.1224 18.6127C94.6751 20.0609 94.6751 22.4161 96.1224 23.8635C96.8237 24.5648 97.7565 24.9511 98.7478 24.9511C99.7391 24.9511 100.672 24.5648 101.373 23.8635L108.316 16.921C109.179 16.0579 109.179 14.6545 108.316 13.7914C107.479 12.9541 106.021 12.9567 105.186 13.7905L98.3872 20.5841C98.2444 20.727 98.1661 20.9171 98.1661 21.1193C98.1661 21.3216 98.2444 21.5117 98.3881 21.6546C98.6738 21.9428 99.1737 21.9411 99.4594 21.6546L105.167 15.9478L106.262 17.044L100.556 22.7508C99.6547 23.65 98.1919 23.6483 97.2927 22.7508C96.3935 21.8516 96.3935 20.3871 97.2927 19.4887L104.091 12.696C104.8 11.9861 105.746 11.5945 106.751 11.5945C107.755 11.5945 108.7 11.9852 109.412 12.696C110.878 14.1631 110.878 16.5501 109.412 18.0173L102.469 24.9589C101.475 25.9527 100.154 26.5 98.7478 26.5Z" fill="#18244E"/>
</svg>
