<svg width="100" height="36" viewBox="0 0 100 36" fill="none" xmlns="http://www.w3.org/2000/svg">
<rect width="100" height="36" rx="18" fill="#18244E"/>
<path d="M16.1787 15V7.8H20.8287V8.93H17.3837V10.705H20.2287V11.835H17.3837V13.87H20.8287V15H16.1787ZM21.8283 15L24.2683 11.36L21.8983 7.8H23.3733L25.0133 10.335L26.6383 7.8H28.1233L25.7533 11.36L28.1833 15H26.7083L25.0133 12.385L23.3133 15H21.8283ZM29.3811 15V7.8H32.3561C32.4261 7.8 32.5161 7.80333 32.6261 7.81C32.7361 7.81333 32.8377 7.82333 32.9311 7.84C33.3477 7.90333 33.6911 8.04167 33.9611 8.255C34.2344 8.46833 34.4361 8.73833 34.5661 9.065C34.6994 9.38833 34.7661 9.74833 34.7661 10.145C34.7661 10.5383 34.6994 10.8983 34.5661 11.225C34.4327 11.5483 34.2294 11.8167 33.9561 12.03C33.6861 12.2433 33.3444 12.3817 32.9311 12.445C32.8377 12.4583 32.7344 12.4683 32.6211 12.475C32.5111 12.4817 32.4227 12.485 32.3561 12.485H30.5861V15H29.3811ZM30.5861 11.36H32.3061C32.3727 11.36 32.4477 11.3567 32.5311 11.35C32.6144 11.3433 32.6911 11.33 32.7611 11.31C32.9611 11.26 33.1177 11.1717 33.2311 11.045C33.3477 10.9183 33.4294 10.775 33.4761 10.615C33.5261 10.455 33.5511 10.2983 33.5511 10.145C33.5511 9.99167 33.5261 9.835 33.4761 9.675C33.4294 9.51167 33.3477 9.36667 33.2311 9.24C33.1177 9.11333 32.9611 9.025 32.7611 8.975C32.6911 8.955 32.6144 8.94333 32.5311 8.94C32.4477 8.93333 32.3727 8.93 32.3061 8.93H30.5861V11.36ZM39.2128 15.15C38.4928 15.15 37.8761 14.9933 37.3628 14.68C36.8494 14.3633 36.4544 13.9233 36.1778 13.36C35.9044 12.7967 35.7678 12.1433 35.7678 11.4C35.7678 10.6567 35.9044 10.0033 36.1778 9.44C36.4544 8.87667 36.8494 8.43833 37.3628 8.125C37.8761 7.80833 38.4928 7.65 39.2128 7.65C39.9328 7.65 40.5494 7.80833 41.0628 8.125C41.5794 8.43833 41.9744 8.87667 42.2478 9.44C42.5244 10.0033 42.6628 10.6567 42.6628 11.4C42.6628 12.1433 42.5244 12.7967 42.2478 13.36C41.9744 13.9233 41.5794 14.3633 41.0628 14.68C40.5494 14.9933 39.9328 15.15 39.2128 15.15ZM39.2128 14.015C39.6961 14.0183 40.0978 13.9117 40.4178 13.695C40.7411 13.4783 40.9828 13.1733 41.1428 12.78C41.3061 12.3867 41.3878 11.9267 41.3878 11.4C41.3878 10.8733 41.3061 10.4167 41.1428 10.03C40.9828 9.64 40.7411 9.33667 40.4178 9.12C40.0978 8.90333 39.6961 8.79167 39.2128 8.785C38.7294 8.78167 38.3278 8.88833 38.0078 9.105C37.6878 9.32167 37.4461 9.62667 37.2828 10.02C37.1228 10.4133 37.0428 10.8733 37.0428 11.4C37.0428 11.9267 37.1228 12.385 37.2828 12.775C37.4428 13.1617 37.6828 13.4633 38.0028 13.68C38.3261 13.8967 38.7294 14.0083 39.2128 14.015ZM44.058 15V7.8H47.033C47.103 7.8 47.193 7.80333 47.303 7.81C47.413 7.81333 47.5147 7.82333 47.608 7.84C48.0247 7.90333 48.368 8.04167 48.638 8.255C48.9113 8.46833 49.113 8.73833 49.243 9.065C49.3763 9.38833 49.443 9.74833 49.443 10.145C49.443 10.7317 49.2947 11.2367 48.998 11.66C48.7013 12.08 48.2463 12.34 47.633 12.44L47.118 12.485H45.263V15H44.058ZM48.193 15L46.773 12.07L47.998 11.8L49.558 15H48.193ZM45.263 11.36H46.983C47.0497 11.36 47.1247 11.3567 47.208 11.35C47.2913 11.3433 47.368 11.33 47.438 11.31C47.638 11.26 47.7947 11.1717 47.908 11.045C48.0247 10.9183 48.1063 10.775 48.153 10.615C48.203 10.455 48.228 10.2983 48.228 10.145C48.228 9.99167 48.203 9.835 48.153 9.675C48.1063 9.51167 48.0247 9.36667 47.908 9.24C47.7947 9.11333 47.638 9.025 47.438 8.975C47.368 8.955 47.2913 8.94333 47.208 8.94C47.1247 8.93333 47.0497 8.93 46.983 8.93H45.263V11.36ZM52.7896 15V8.93H50.4596V7.8H56.3246V8.93H53.9946V15H52.7896ZM20.568 29V21.8H25.218V22.93H21.773V24.705H24.618V25.835H21.773V27.87H25.218V29H20.568ZM26.2176 29L28.6576 25.36L26.2876 21.8H27.7626L29.4026 24.335L31.0276 21.8H32.5126L30.1426 25.36L32.5726 29H31.0976L29.4026 26.385L27.7026 29H26.2176ZM36.5126 29.15C35.7926 29.15 35.1759 28.9933 34.6626 28.68C34.1492 28.3633 33.7542 27.9233 33.4776 27.36C33.2042 26.7967 33.0676 26.1433 33.0676 25.4C33.0676 24.6567 33.2042 24.0033 33.4776 23.44C33.7542 22.8767 34.1492 22.4383 34.6626 22.125C35.1759 21.8083 35.7926 21.65 36.5126 21.65C37.3426 21.65 38.0342 21.8583 38.5876 22.275C39.1409 22.6883 39.5292 23.2467 39.7526 23.95L38.5376 24.285C38.3976 23.815 38.1592 23.4483 37.8226 23.185C37.4859 22.9183 37.0492 22.785 36.5126 22.785C36.0292 22.785 35.6259 22.8933 35.3026 23.11C34.9826 23.3267 34.7409 23.6317 34.5776 24.025C34.4176 24.415 34.3359 24.8733 34.3326 25.4C34.3326 25.9267 34.4126 26.3867 34.5726 26.78C34.7359 27.17 34.9792 27.4733 35.3026 27.69C35.6259 27.9067 36.0292 28.015 36.5126 28.015C37.0492 28.015 37.4859 27.8817 37.8226 27.615C38.1592 27.3483 38.3976 26.9817 38.5376 26.515L39.7526 26.85C39.5292 27.5533 39.1409 28.1133 38.5876 28.53C38.0342 28.9433 37.3426 29.15 36.5126 29.15ZM41.2504 29V21.8H45.9004V22.93H42.4554V24.705H45.3004V25.835H42.4554V27.87H45.9004V29H41.2504ZM47.6 29V21.8H48.805V27.87H51.985V29H47.6Z" fill="#F1F3FB"/>
<path fill-rule="evenodd" clip-rule="evenodd" d="M73.295 6.17367L68.7284 10.7405C68.6162 10.8536 68.5547 11.0078 68.5547 11.1594V27.7273C68.5547 28.0547 68.82 28.32 69.1474 28.32H72.4617V27.1346H69.7401V11.7521H73.7141C74.0415 11.7521 74.3069 11.4868 74.3069 11.1594V9.3283C74.3069 9.00094 74.0415 8.73558 73.7141 8.73558C73.3868 8.73558 73.1214 9.00094 73.1214 9.3283V10.5667H70.5783L73.9597 7.18543H84.1134V17.1628H85.2989V6.59271C85.2989 6.26536 85.0335 6 84.7062 6H73.7141C73.5504 6 73.4022 6.06638 73.295 6.17367Z" fill="white"/>
<rect x="74.0781" y="19.8984" width="16.8605" height="9.60465" rx="3.96512" stroke="white"/>
<path d="M78.2532 26.7031L79.3427 25.0778L78.2845 23.4882H78.9431L79.6754 24.6201L80.4009 23.4882H81.064L80.0058 25.0778L81.0908 26.7031H80.4322L79.6754 25.5355L78.9163 26.7031H78.2532ZM81.6703 26.7031V23.4882H82.2083V26.1986H83.6282V26.7031H81.6703ZM85.375 26.7701C85.1398 26.7701 84.9277 26.7292 84.7387 26.6473C84.5512 26.5655 84.3964 26.4486 84.2743 26.2968C84.1538 26.1435 84.0771 25.9619 84.0444 25.7521L84.6025 25.6672C84.6501 25.8577 84.7476 26.0051 84.895 26.1093C85.0438 26.2135 85.215 26.2655 85.4085 26.2655C85.5231 26.2655 85.631 26.2477 85.7322 26.212C85.8334 26.1762 85.9153 26.1241 85.9778 26.0557C86.0418 25.9872 86.0738 25.9031 86.0738 25.8034C86.0738 25.7588 86.0663 25.7178 86.0514 25.6806C86.0366 25.6419 86.0142 25.6077 85.9845 25.5779C85.9562 25.5481 85.919 25.5214 85.8728 25.4975C85.8282 25.4722 85.7761 25.4507 85.7166 25.4328L84.886 25.1872C84.8146 25.1664 84.7372 25.1388 84.6539 25.1046C84.572 25.0689 84.4939 25.0205 84.4194 24.9595C84.3465 24.897 84.2862 24.8181 84.2386 24.7228C84.1925 24.6261 84.1694 24.507 84.1694 24.3656C84.1694 24.1588 84.2215 23.9854 84.3257 23.8455C84.4313 23.7041 84.5727 23.5984 84.7499 23.5284C84.9285 23.4585 85.1264 23.4242 85.3437 23.4257C85.564 23.4272 85.7605 23.4652 85.9331 23.5396C86.1058 23.6125 86.2501 23.7189 86.3662 23.8588C86.4823 23.9988 86.5642 24.1677 86.6118 24.3656L86.0336 24.4661C86.0098 24.353 85.9636 24.257 85.8952 24.1781C85.8282 24.0977 85.7456 24.0367 85.6473 23.995C85.5506 23.9534 85.4472 23.931 85.337 23.9281C85.2299 23.9266 85.1301 23.9429 85.0379 23.9772C84.9471 24.0099 84.8734 24.0575 84.8168 24.1201C84.7618 24.1826 84.7342 24.2555 84.7342 24.3388C84.7342 24.4177 84.758 24.4825 84.8057 24.5331C84.8533 24.5822 84.9121 24.6216 84.982 24.6514C85.0535 24.6797 85.1257 24.7035 85.1986 24.7228L85.7746 24.8836C85.8535 24.9044 85.942 24.9327 86.0403 24.9684C86.1385 25.0041 86.233 25.054 86.3238 25.118C86.4146 25.182 86.489 25.2661 86.5471 25.3703C86.6066 25.4745 86.6364 25.6069 86.6364 25.7677C86.6364 25.9344 86.6014 26.081 86.5314 26.2075C86.463 26.3325 86.37 26.4367 86.2524 26.5201C86.1348 26.6034 86.0001 26.6659 85.8483 26.7076C85.698 26.7493 85.5402 26.7701 85.375 26.7701Z" fill="white"/>
</svg>
