<svg width="135" height="36" viewBox="0 0 135 36" fill="none" xmlns="http://www.w3.org/2000/svg">
<rect width="135" height="36" rx="18" fill="#C6CEED"/>
<path d="M8.91484 23V14.36H14.4948V15.716H10.3608V17.846H13.7748V19.202H10.3608V21.644H14.4948V23H8.91484ZM15.6944 23L18.6224 18.632L15.7784 14.36H17.5484L19.5164 17.402L21.4664 14.36H23.2484L20.4044 18.632L23.3204 23H21.5504L19.5164 19.862L17.4764 23H15.6944ZM24.7577 23V14.36H28.3277C28.4117 14.36 28.5197 14.364 28.6517 14.372C28.7837 14.376 28.9057 14.388 29.0177 14.408C29.5177 14.484 29.9297 14.65 30.2537 14.906C30.5817 15.162 30.8237 15.486 30.9797 15.878C31.1397 16.266 31.2197 16.698 31.2197 17.174C31.2197 17.646 31.1397 18.078 30.9797 18.47C30.8197 18.858 30.5757 19.18 30.2477 19.436C29.9237 19.692 29.5137 19.858 29.0177 19.934C28.9057 19.95 28.7817 19.962 28.6457 19.97C28.5137 19.978 28.4077 19.982 28.3277 19.982H26.2037V23H24.7577ZM26.2037 18.632H28.2677C28.3477 18.632 28.4377 18.628 28.5377 18.62C28.6377 18.612 28.7297 18.596 28.8137 18.572C29.0537 18.512 29.2417 18.406 29.3777 18.254C29.5177 18.102 29.6157 17.93 29.6717 17.738C29.7317 17.546 29.7617 17.358 29.7617 17.174C29.7617 16.99 29.7317 16.802 29.6717 16.61C29.6157 16.414 29.5177 16.24 29.3777 16.088C29.2417 15.936 29.0537 15.83 28.8137 15.77C28.7297 15.746 28.6377 15.732 28.5377 15.728C28.4377 15.72 28.3477 15.716 28.2677 15.716H26.2037V18.632ZM36.5557 23.18C35.6917 23.18 34.9517 22.992 34.3357 22.616C33.7197 22.236 33.2457 21.708 32.9137 21.032C32.5857 20.356 32.4217 19.572 32.4217 18.68C32.4217 17.788 32.5857 17.004 32.9137 16.328C33.2457 15.652 33.7197 15.126 34.3357 14.75C34.9517 14.37 35.6917 14.18 36.5557 14.18C37.4197 14.18 38.1597 14.37 38.7757 14.75C39.3957 15.126 39.8697 15.652 40.1977 16.328C40.5297 17.004 40.6957 17.788 40.6957 18.68C40.6957 19.572 40.5297 20.356 40.1977 21.032C39.8697 21.708 39.3957 22.236 38.7757 22.616C38.1597 22.992 37.4197 23.18 36.5557 23.18ZM36.5557 21.818C37.1357 21.822 37.6177 21.694 38.0017 21.434C38.3897 21.174 38.6797 20.808 38.8717 20.336C39.0677 19.864 39.1657 19.312 39.1657 18.68C39.1657 18.048 39.0677 17.5 38.8717 17.036C38.6797 16.568 38.3897 16.204 38.0017 15.944C37.6177 15.684 37.1357 15.55 36.5557 15.542C35.9757 15.538 35.4937 15.666 35.1097 15.926C34.7257 16.186 34.4357 16.552 34.2397 17.024C34.0477 17.496 33.9517 18.048 33.9517 18.68C33.9517 19.312 34.0477 19.862 34.2397 20.33C34.4317 20.794 34.7197 21.156 35.1037 21.416C35.4917 21.676 35.9757 21.81 36.5557 21.818ZM42.37 23V14.36H45.94C46.024 14.36 46.132 14.364 46.264 14.372C46.396 14.376 46.518 14.388 46.63 14.408C47.13 14.484 47.542 14.65 47.866 14.906C48.194 15.162 48.436 15.486 48.592 15.878C48.752 16.266 48.832 16.698 48.832 17.174C48.832 17.878 48.654 18.484 48.298 18.992C47.942 19.496 47.396 19.808 46.66 19.928L46.042 19.982H43.816V23H42.37ZM47.332 23L45.628 19.484L47.098 19.16L48.97 23H47.332ZM43.816 18.632H45.88C45.96 18.632 46.05 18.628 46.15 18.62C46.25 18.612 46.342 18.596 46.426 18.572C46.666 18.512 46.854 18.406 46.99 18.254C47.13 18.102 47.228 17.93 47.284 17.738C47.344 17.546 47.374 17.358 47.374 17.174C47.374 16.99 47.344 16.802 47.284 16.61C47.228 16.414 47.13 16.24 46.99 16.088C46.854 15.936 46.666 15.83 46.426 15.77C46.342 15.746 46.25 15.732 46.15 15.728C46.05 15.72 45.96 15.716 45.88 15.716H43.816V18.632ZM52.8479 23V15.716H50.0519V14.36H57.0899V15.716H54.2939V23H52.8479ZM61.0483 23V14.36H66.6283V15.716H62.4943V17.846H65.9083V19.202H62.4943V21.644H66.6283V23H61.0483ZM67.8278 23L70.7558 18.632L67.9118 14.36H69.6818L71.6498 17.402L73.5998 14.36H75.3818L72.5378 18.632L75.4538 23H73.6838L71.6498 19.862L69.6098 23H67.8278ZM80.1818 23.18C79.3178 23.18 78.5778 22.992 77.9618 22.616C77.3458 22.236 76.8718 21.708 76.5398 21.032C76.2118 20.356 76.0478 19.572 76.0478 18.68C76.0478 17.788 76.2118 17.004 76.5398 16.328C76.8718 15.652 77.3458 15.126 77.9618 14.75C78.5778 14.37 79.3178 14.18 80.1818 14.18C81.1778 14.18 82.0078 14.43 82.6718 14.93C83.3358 15.426 83.8018 16.096 84.0698 16.94L82.6118 17.342C82.4438 16.778 82.1578 16.338 81.7538 16.022C81.3498 15.702 80.8258 15.542 80.1818 15.542C79.6018 15.542 79.1178 15.672 78.7298 15.932C78.3458 16.192 78.0558 16.558 77.8598 17.03C77.6678 17.498 77.5698 18.048 77.5658 18.68C77.5658 19.312 77.6618 19.864 77.8538 20.336C78.0498 20.804 78.3418 21.168 78.7298 21.428C79.1178 21.688 79.6018 21.818 80.1818 21.818C80.8258 21.818 81.3498 21.658 81.7538 21.338C82.1578 21.018 82.4438 20.578 82.6118 20.018L84.0698 20.42C83.8018 21.264 83.3358 21.936 82.6718 22.436C82.0078 22.932 81.1778 23.18 80.1818 23.18ZM85.8672 23V14.36H91.4472V15.716H87.3132V17.846H90.7272V19.202H87.3132V21.644H91.4472V23H85.8672ZM93.4867 23V14.36H94.9327V21.644H98.7487V23H93.4867Z" fill="#18244E"/>
<path fill-rule="evenodd" clip-rule="evenodd" d="M108.299 6.17367L103.732 10.7405C103.62 10.8536 103.559 11.0078 103.559 11.1594V27.7273C103.559 28.0547 103.824 28.32 104.151 28.32H107.466V27.1346H104.744V11.7521H108.718C109.045 11.7521 109.311 11.4868 109.311 11.1594V9.3283C109.311 9.00094 109.045 8.73558 108.718 8.73558C108.391 8.73558 108.125 9.00094 108.125 9.3283V10.5667H105.582L108.964 7.18543H119.117V17.1628H120.303V6.59271C120.303 6.26536 120.037 6 119.71 6H108.718C108.554 6 108.406 6.06638 108.299 6.17367Z" fill="#18244E"/>
<rect x="109.082" y="19.8984" width="16.8605" height="9.60465" rx="3.96512" stroke="#18244E"/>
<path d="M113.257 26.7031L114.347 25.0778L113.288 23.4882H113.947L114.679 24.6201L115.405 23.4882H116.068L115.01 25.0778L116.095 26.7031H115.436L114.679 25.5355L113.92 26.7031H113.257ZM116.674 26.7031V23.4882H117.212V26.1986H118.632V26.7031H116.674ZM120.379 26.7701C120.144 26.7701 119.932 26.7292 119.743 26.6473C119.555 26.5655 119.4 26.4486 119.278 26.2968C119.158 26.1435 119.081 25.9619 119.048 25.7521L119.606 25.6672C119.654 25.8577 119.752 26.0051 119.899 26.1093C120.048 26.2135 120.219 26.2655 120.412 26.2655C120.527 26.2655 120.635 26.2477 120.736 26.212C120.837 26.1762 120.919 26.1241 120.982 26.0557C121.046 25.9872 121.078 25.9031 121.078 25.8034C121.078 25.7588 121.07 25.7178 121.055 25.6806C121.04 25.6419 121.018 25.6077 120.988 25.5779C120.96 25.5481 120.923 25.5214 120.877 25.4975C120.832 25.4722 120.78 25.4507 120.72 25.4328L119.89 25.1872C119.819 25.1664 119.741 25.1388 119.658 25.1046C119.576 25.0689 119.498 25.0205 119.423 24.9595C119.35 24.897 119.29 24.8181 119.243 24.7228C119.196 24.6261 119.173 24.507 119.173 24.3656C119.173 24.1588 119.225 23.9854 119.33 23.8455C119.435 23.7041 119.577 23.5984 119.754 23.5284C119.932 23.4585 120.13 23.4242 120.348 23.4257C120.568 23.4272 120.764 23.4652 120.937 23.5396C121.11 23.6125 121.254 23.7189 121.37 23.8588C121.486 23.9988 121.568 24.1677 121.616 24.3656L121.037 24.4661C121.014 24.353 120.968 24.257 120.899 24.1781C120.832 24.0977 120.749 24.0367 120.651 23.995C120.555 23.9534 120.451 23.931 120.341 23.9281C120.234 23.9266 120.134 23.9429 120.042 23.9772C119.951 24.0099 119.877 24.0575 119.821 24.1201C119.766 24.1826 119.738 24.2555 119.738 24.3388C119.738 24.4177 119.762 24.4825 119.81 24.5331C119.857 24.5822 119.916 24.6216 119.986 24.6514C120.057 24.6797 120.13 24.7035 120.203 24.7228L120.779 24.8836C120.857 24.9044 120.946 24.9327 121.044 24.9684C121.142 25.0041 121.237 25.054 121.328 25.118C121.419 25.182 121.493 25.2661 121.551 25.3703C121.611 25.4745 121.64 25.6069 121.64 25.7677C121.64 25.9344 121.605 26.081 121.535 26.2075C121.467 26.3325 121.374 26.4367 121.256 26.5201C121.139 26.6034 121.004 26.6659 120.852 26.7076C120.702 26.7493 120.544 26.7701 120.379 26.7701Z" fill="#18244E"/>
</svg>
