<svg width="122" height="36" viewBox="0 0 122 36" fill="none" xmlns="http://www.w3.org/2000/svg">
<rect width="122" height="36" rx="18" fill="#C6CEED"/>
<path d="M8.25406 23L10.9781 14.36H13.0961L15.8201 23H14.3321L11.8601 15.248H12.1841L9.74206 23H8.25406ZM9.77206 21.128V19.778H14.3081V21.128H9.77206ZM18.746 23V15.716H15.95V14.36H22.988V15.716H20.192V23H18.746ZM27.2182 23V15.716H24.4222V14.36H31.4602V15.716H28.6642V23H27.2182ZM32.0652 23L34.7892 14.36H36.9072L39.6312 23H38.1432L35.6712 15.248H35.9952L33.5532 23H32.0652ZM33.5832 21.128V19.778H38.1192V21.128H33.5832ZM44.6156 23.18C43.7516 23.18 43.0116 22.992 42.3956 22.616C41.7796 22.236 41.3056 21.708 40.9736 21.032C40.6456 20.356 40.4816 19.572 40.4816 18.68C40.4816 17.788 40.6456 17.004 40.9736 16.328C41.3056 15.652 41.7796 15.126 42.3956 14.75C43.0116 14.37 43.7516 14.18 44.6156 14.18C45.6116 14.18 46.4416 14.43 47.1056 14.93C47.7696 15.426 48.2356 16.096 48.5036 16.94L47.0456 17.342C46.8776 16.778 46.5916 16.338 46.1876 16.022C45.7836 15.702 45.2596 15.542 44.6156 15.542C44.0356 15.542 43.5516 15.672 43.1636 15.932C42.7796 16.192 42.4896 16.558 42.2936 17.03C42.1016 17.498 42.0036 18.048 41.9996 18.68C41.9996 19.312 42.0956 19.864 42.2876 20.336C42.4836 20.804 42.7756 21.168 43.1636 21.428C43.5516 21.688 44.0356 21.818 44.6156 21.818C45.2596 21.818 45.7836 21.658 46.1876 21.338C46.5916 21.018 46.8776 20.578 47.0456 20.018L48.5036 20.42C48.2356 21.264 47.7696 21.936 47.1056 22.436C46.4416 22.932 45.6116 23.18 44.6156 23.18ZM50.3009 23V14.36H51.7469V17.996H55.8389V14.36H57.2789V23H55.8389V19.352H51.7469V23H50.3009ZM62.3234 23V14.36H67.5254V15.806H63.7694V17.96H66.8054V19.4H63.7694V23H62.3234ZM69.2047 23V14.36H70.6507V23H69.2047ZM73.048 23V14.36H74.494V21.644H78.31V23H73.048ZM79.8064 23V14.36H85.3864V15.716H81.2524V17.846H84.6664V19.202H81.2524V21.644H85.3864V23H79.8064Z" fill="#18244E"/>
<path fill-rule="evenodd" clip-rule="evenodd" d="M98.7476 26C97.3424 26 96.0207 25.4527 95.0268 24.4589C92.9754 22.4074 92.9754 19.0687 95.0268 17.0173L102.044 10L103.14 11.0963L96.1222 18.1127C94.6749 19.5609 94.6749 21.9161 96.1222 23.3635C96.8236 24.0648 97.7563 24.4511 98.7476 24.4511C99.7389 24.4511 100.672 24.0648 101.373 23.3635L108.315 16.421C109.179 15.5579 109.179 14.1545 108.315 13.2914C107.479 12.4541 106.02 12.4567 105.186 13.2905L98.3871 20.0841C98.2442 20.227 98.1659 20.4171 98.1659 20.6193C98.1659 20.8216 98.2442 21.0117 98.3879 21.1546C98.6736 21.4428 99.1736 21.4411 99.4592 21.1546L105.167 15.4478L106.262 16.544L100.556 22.2508C99.6546 23.15 98.1917 23.1483 97.2925 22.2508C96.3933 21.3516 96.3933 19.8871 97.2925 18.9887L104.091 12.196C104.8 11.4861 105.746 11.0945 106.751 11.0945C107.755 11.0945 108.7 11.4852 109.412 12.196C110.878 13.6631 110.878 16.0501 109.412 17.5173L102.468 24.4589C101.475 25.4527 100.154 26 98.7476 26Z" fill="#18244E"/>
</svg>
