<svg width="97" height="24" viewBox="0 0 97 24" fill="none" xmlns="http://www.w3.org/2000/svg">
<path d="M7.09797 9.04277C7.09797 9.45061 6.76733 9.78125 6.35949 9.78125C5.95165 9.78125 5.62109 9.45061 5.62109 9.04277C5.62109 8.63493 5.95165 8.30429 6.35949 8.30429C6.76733 8.30429 7.09797 8.63493 7.09797 9.04277Z" fill="#026668"/>
<path d="M7.09797 11.9998C7.09797 12.4076 6.76733 12.7383 6.35949 12.7383C5.95165 12.7383 5.62109 12.4076 5.62109 11.9998C5.62109 11.592 5.95165 11.2613 6.35949 11.2613C6.76733 11.2613 7.09797 11.592 7.09797 11.9998Z" fill="#026668"/>
<path d="M10.0531 11.9998C10.0531 12.4076 9.72249 12.7383 9.31465 12.7383C8.90681 12.7383 8.57617 12.4076 8.57617 11.9998C8.57617 11.592 8.90681 11.2613 9.31465 11.2613C9.72249 11.2613 10.0531 11.592 10.0531 11.9998Z" fill="#026668"/>
<path d="M7.09797 14.9529C7.09797 15.3608 6.76733 15.6914 6.35949 15.6914C5.95165 15.6914 5.62109 15.3608 5.62109 14.9529C5.62109 14.5451 5.95165 14.2144 6.35949 14.2144C6.76733 14.2144 7.09797 14.5451 7.09797 14.9529Z" fill="#026668"/>
<path d="M10.0531 14.9529C10.0531 15.3608 9.72249 15.6914 9.31465 15.6914C8.90681 15.6914 8.57617 15.3608 8.57617 14.9529C8.57617 14.5451 8.90681 14.2144 9.31465 14.2144C9.72249 14.2144 10.0531 14.5451 10.0531 14.9529Z" fill="#026668"/>
<path d="M7.09797 17.9061C7.09797 18.3139 6.76733 18.6445 6.35949 18.6445C5.95165 18.6445 5.62109 18.3139 5.62109 17.9061C5.62109 17.4982 5.95165 17.1676 6.35949 17.1676C6.76733 17.1676 7.09797 17.4982 7.09797 17.9061Z" fill="#026668"/>
<path d="M10.0531 17.9061C10.0531 18.3139 9.72249 18.6445 9.31465 18.6445C8.90681 18.6445 8.57617 18.3139 8.57617 17.9061C8.57617 17.4982 8.90681 17.1676 9.31465 17.1676C9.72249 17.1676 10.0531 17.4982 10.0531 17.9061Z" fill="#026668"/>
<path d="M7.09797 20.8592C7.09797 21.267 6.76733 21.5977 6.35949 21.5977C5.95165 21.5977 5.62109 21.267 5.62109 20.8592C5.62109 20.4513 5.95165 20.1207 6.35949 20.1207C6.76733 20.1207 7.09797 20.4513 7.09797 20.8592Z" fill="#026668"/>
<path d="M10.0531 20.8592C10.0531 21.267 9.72249 21.5977 9.31465 21.5977C8.90681 21.5977 8.57617 21.267 8.57617 20.8592C8.57617 20.4513 8.90681 20.1207 9.31465 20.1207C9.72249 20.1207 10.0531 20.4513 10.0531 20.8592Z" fill="#026668"/>
<path d="M13.0081 14.9529C13.0081 15.3608 12.6775 15.6914 12.2696 15.6914C11.8618 15.6914 11.5312 15.3608 11.5312 14.9529C11.5312 14.5451 11.8618 14.2144 12.2696 14.2144C12.6775 14.2144 13.0081 14.5451 13.0081 14.9529Z" fill="#026668"/>
<path d="M13.0081 17.9061C13.0081 18.3139 12.6775 18.6445 12.2696 18.6445C11.8618 18.6445 11.5312 18.3139 11.5312 17.9061C11.5312 17.4982 11.8618 17.1676 12.2696 17.1676C12.6775 17.1676 13.0081 17.4982 13.0081 17.9061Z" fill="#026668"/>
<path d="M13.0081 20.8592C13.0081 21.267 12.6775 21.5977 12.2696 21.5977C11.8618 21.5977 11.5312 21.267 11.5312 20.8592C11.5312 20.4513 11.8618 20.1207 12.2696 20.1207C12.6775 20.1207 13.0081 20.4513 13.0081 20.8592Z" fill="#026668"/>
<path d="M15.9613 17.9061C15.9613 18.3139 15.6307 18.6445 15.2229 18.6445C14.815 18.6445 14.4844 18.3139 14.4844 17.9061C14.4844 17.4982 14.815 17.1676 15.2229 17.1676C15.6307 17.1676 15.9613 17.4982 15.9613 17.9061Z" fill="#026668"/>
<path d="M15.9613 20.8592C15.9613 21.267 15.6307 21.5977 15.2229 21.5977C14.815 21.5977 14.4844 21.267 14.4844 20.8592C14.4844 20.4513 14.815 20.1207 15.2229 20.1207C15.6307 20.1207 15.9613 20.4513 15.9613 20.8592Z" fill="#026668"/>
<path d="M18.9124 20.8592C18.9124 21.267 18.5818 21.5977 18.1739 21.5977C17.7661 21.5977 17.4355 21.267 17.4355 20.8592C17.4355 20.4513 17.7661 20.1207 18.1739 20.1207C18.5818 20.1207 18.9124 20.4513 18.9124 20.8592Z" fill="#026668"/>
<path d="M24.0826 21.5977C23.8936 21.5977 23.7047 21.5256 23.5604 21.3814L5.83733 3.65832C5.54901 3.36992 5.54901 2.90232 5.83733 2.61392C6.12573 2.3256 6.59333 2.3256 6.88173 2.61392L24.6047 20.337C24.8931 20.6254 24.8931 21.093 24.6047 21.3814C24.4606 21.5256 24.2716 21.5977 24.0826 21.5977Z" fill="#026668"/>
<path d="M24.8237 3.13758V14.9529C24.8237 15.252 24.6435 15.5208 24.3681 15.6353C24.2765 15.6729 24.1805 15.6914 24.0852 15.6914C23.8932 15.6914 23.7041 15.6161 23.5631 15.475L11.7478 3.65966C11.5366 3.44846 11.473 3.13094 11.5875 2.85478C11.702 2.57927 11.9715 2.39911 12.2698 2.39911H24.0852C24.4929 2.39911 24.8237 2.72999 24.8237 3.13758Z" fill="#026668"/>
<path d="M34.5318 12.1004V18.2243H31.2383V5.70917H32.3955L38.6976 11.8689V5.76261H41.9554V18.2422H40.8161L34.5318 12.1004Z" fill="#026668"/>
<path d="M51.8381 14.023V5.7626H54.8823V14.0764C54.8823 16.8179 52.5146 18.4023 49.9511 18.4023C47.4052 18.4023 45.002 16.8179 45.002 14.0764V5.7626H48.0461V14.023C48.0461 15.0377 49.0252 15.5362 49.9511 15.5362C50.8767 15.5362 51.8381 15.0377 51.8381 14.023Z" fill="#026668"/>
<path d="M63.4263 8.60931C62.6786 8.59147 61.8953 8.60931 61.1476 8.60931V11.7247H63.4263C65.1531 11.7247 65.2421 8.62707 63.4263 8.60931ZM68.5 17.7599V18.2227H64.9395L62.8031 14.5554H61.1476V18.2227H57.9609V5.76091H63.4263C68.322 5.77868 69.2121 11.6713 66.061 13.8077L68.5 17.7599Z" fill="#026668"/>
<path d="M75.7082 10.6566L74.3017 13.9323H77.1501L75.7082 10.6566ZM78.1828 16.6561H73.2693L72.5393 18.2227H69.4238V17.7599L75.0317 5.60068H76.4025L82.0281 17.7599V18.2227H78.9127L78.1828 16.6561Z" fill="#026668"/>
<path d="M86.8528 15.3565H91.3747V18.2227H83.6484V5.76091H86.8528V15.3565Z" fill="#026668"/>
</svg>
