<svg width="24" height="24" viewBox="0 0 24 24" fill="none" xmlns="http://www.w3.org/2000/svg">
<path fill-rule="evenodd" clip-rule="evenodd" d="M5.29788 0.173665L0.73137 4.7405C0.61908 4.85362 0.557617 5.00784 0.557617 5.15943V21.7273C0.557617 22.0547 0.822975 22.32 1.15033 22.32H4.46459V21.1346H1.74305V5.75215H5.71708C6.04444 5.75215 6.30979 5.48679 6.30979 5.15943V3.3283C6.30979 3.00094 6.04444 2.73558 5.71708 2.73558C5.38972 2.73558 5.12436 3.00094 5.12436 3.3283V4.56672H2.58126L5.96258 1.18543H16.1164V11.1628H17.3018V0.592714C17.3018 0.265358 17.0364 0 16.7091 0H5.71708C5.55334 0 5.40513 0.066384 5.29788 0.173665Z" fill="#18244E"/>
<rect x="6.08105" y="13.8955" width="16.8605" height="9.60465" rx="3.96512" stroke="#18244E"/>
<path d="M10.488 20.6982V17.4834H11.8163C11.8476 17.4834 11.8878 17.4848 11.9369 17.4878C11.986 17.4893 12.0314 17.4938 12.0731 17.5012C12.2591 17.5295 12.4124 17.5913 12.533 17.6865C12.655 17.7818 12.7451 17.9023 12.8031 18.0482C12.8627 18.1926 12.8924 18.3533 12.8924 18.5304C12.8924 18.7061 12.8627 18.8668 12.8031 19.0127C12.7436 19.157 12.6528 19.2768 12.5308 19.3721C12.4102 19.4674 12.2576 19.5291 12.0731 19.5574C12.0314 19.5634 11.9853 19.5678 11.9347 19.5708C11.8856 19.5738 11.8461 19.5753 11.8163 19.5753H11.026V20.6982H10.488ZM11.026 19.0729H11.794C11.8238 19.0729 11.8573 19.0715 11.8945 19.0685C11.9317 19.0655 11.9659 19.0595 11.9972 19.0506C12.0865 19.0283 12.1564 18.9888 12.207 18.9323C12.2591 18.8757 12.2956 18.8117 12.3164 18.7403C12.3388 18.6688 12.3499 18.5989 12.3499 18.5304C12.3499 18.462 12.3388 18.392 12.3164 18.3206C12.2956 18.2476 12.2591 18.1829 12.207 18.1263C12.1564 18.0698 12.0865 18.0303 11.9972 18.008C11.9659 17.9991 11.9317 17.9939 11.8945 17.9924C11.8573 17.9894 11.8238 17.9879 11.794 17.9879H11.026V19.0729ZM13.5183 20.6982V17.4834H14.5431C14.5699 17.4834 14.6227 17.4841 14.7016 17.4856C14.7819 17.4871 14.8593 17.4923 14.9338 17.5012C15.1883 17.534 15.4033 17.6248 15.579 17.7736C15.7561 17.9209 15.89 18.1092 15.9808 18.3384C16.0716 18.5676 16.117 18.8184 16.117 19.0908C16.117 19.3632 16.0716 19.614 15.9808 19.8432C15.89 20.0724 15.7561 20.2614 15.579 20.4102C15.4033 20.5576 15.1883 20.6476 14.9338 20.6804C14.8608 20.6893 14.7842 20.6945 14.7038 20.696C14.6234 20.6975 14.5699 20.6982 14.5431 20.6982H13.5183ZM14.0653 20.1915H14.5431C14.5877 20.1915 14.6443 20.19 14.7127 20.187C14.7827 20.184 14.8445 20.1773 14.898 20.1669C15.0499 20.1386 15.1734 20.0709 15.2686 19.9637C15.3639 19.8566 15.4339 19.7263 15.4785 19.573C15.5246 19.4197 15.5477 19.259 15.5477 19.0908C15.5477 18.9167 15.5246 18.7529 15.4785 18.5996C15.4324 18.4463 15.3609 18.3176 15.2642 18.2134C15.1689 18.1092 15.0469 18.043 14.898 18.0147C14.8445 18.0028 14.7827 17.9961 14.7127 17.9946C14.6443 17.9916 14.5877 17.9901 14.5431 17.9901H14.0653V20.1915ZM16.8234 20.6982V17.4834H18.759V18.0214H17.3614V18.8229H18.4911V19.3587H17.3614V20.6982H16.8234Z" fill="#18244E"/>
</svg>
