<svg width="80" height="80" viewBox="0 0 80 80" fill="none" xmlns="http://www.w3.org/2000/svg">
<path d="M48.3243 37.5452H48.6749C49.2576 37.5452 49.73 37.0728 49.73 36.4901C49.73 35.9074 49.2576 35.4351 48.6749 35.4351H48.3243C47.7416 35.4351 47.2693 35.9074 47.2693 36.4901C47.2693 37.0728 47.7416 37.5452 48.3243 37.5452Z" fill="#32499F"/>
<path d="M45.1186 35.4351H38.2814C37.6987 35.4351 37.2263 35.9074 37.2263 36.4901C37.2263 37.0728 37.6987 37.5452 38.2814 37.5452H45.1186C45.7013 37.5452 46.1736 37.0728 46.1736 36.4901C46.1736 35.9074 45.7013 35.4351 45.1186 35.4351Z" fill="#32499F"/>
<path d="M48.3243 45.0334H48.6749C49.2576 45.0334 49.73 44.5611 49.73 43.9784C49.73 43.3957 49.2576 42.9233 48.6749 42.9233H48.3243C47.7416 42.9233 47.2693 43.3957 47.2693 43.9784C47.2693 44.5611 47.7416 45.0334 48.3243 45.0334Z" fill="#32499F"/>
<path d="M45.1186 42.9233H38.2814C37.6987 42.9233 37.2263 43.3957 37.2263 43.9784C37.2263 44.5611 37.6987 45.0334 38.2814 45.0334H45.1186C45.7013 45.0334 46.1736 44.5611 46.1736 43.9784C46.1736 43.3957 45.7013 42.9233 45.1186 42.9233Z" fill="#32499F"/>
<path d="M44.9424 50.541H38.0649C37.4788 50.541 37.0037 50.9887 37.0037 51.541C37.0037 52.0933 37.4788 52.541 38.0649 52.541H44.9424C45.5285 52.541 46.0037 52.0933 46.0037 51.541C46.0037 50.9887 45.5285 50.541 44.9424 50.541Z" fill="#32499F"/>
<path d="M48.3287 52.6501H48.6793C49.262 52.6501 49.7344 52.1778 49.7344 51.5951C49.7344 51.0124 49.262 50.54 48.6793 50.54H48.3287C47.746 50.54 47.2737 51.0124 47.2737 51.5951C47.2737 52.1778 47.746 52.6501 48.3287 52.6501Z" fill="#32499F"/>
<path d="M31.6677 38.9517C31.9475 38.9517 32.2159 38.8406 32.4137 38.6427L35.2622 35.7943C35.6742 35.3822 35.6742 34.7142 35.2622 34.3022C34.8501 33.8902 34.1822 33.8901 33.7702 34.3022L31.6678 36.4046L31.3672 36.1041C30.9552 35.6921 30.2872 35.6919 29.8752 36.104C29.4632 36.516 29.4631 37.1841 29.8751 37.5961L30.9217 38.6427C31.1196 38.8405 31.3879 38.9517 31.6677 38.9517Z" fill="#05CFD3"/>
<path d="M31.6677 45.9517C31.9475 45.9517 32.2159 45.8406 32.4137 45.6427L35.2622 42.7943C35.6742 42.3822 35.6742 41.7142 35.2622 41.3022C34.8501 40.8902 34.1822 40.8901 33.7702 41.3022L31.6678 43.4046L31.3672 43.1041C30.9552 42.6921 30.2872 42.6919 29.8752 43.104C29.4632 43.516 29.4631 44.1841 29.8751 44.5961L30.9217 45.6427C31.1196 45.8405 31.3879 45.9517 31.6677 45.9517Z" fill="#05CFD3"/>
<path d="M33.7701 49.2787L31.6677 51.3812L31.3672 51.0807C30.9552 50.6686 30.2872 50.6686 29.8752 51.0807C29.4631 51.4926 29.4631 52.1607 29.8752 52.5727L30.9218 53.6193C31.1196 53.8172 31.388 53.9283 31.6678 53.9283C31.9477 53.9283 32.216 53.8171 32.4139 53.6193L35.2623 50.7707C35.6743 50.3587 35.6743 49.6907 35.2623 49.2787C34.8501 48.8667 34.1821 48.8667 33.7701 49.2787Z" fill="#05CFD3"/>
<path d="M25.4067 28.573C25.4066 28.5729 25.4064 28.5727 25.4064 28.5727L33.5352 20.4439C33.7261 20.2529 33.99 20.1348 34.2814 20.1348H53.8475C54.4302 20.1348 54.9026 20.6071 54.9026 21.1898V58.8101C54.9026 59.3928 54.4302 59.8651 53.8475 59.8651H26.1525C25.5698 59.8651 25.0974 59.3928 25.0974 58.8101V29.3187C25.0974 29.0489 25.2068 28.7744 25.4067 28.573ZM27.2075 57.755H52.7925V22.2449H34.7184L28.6996 28.2637H33.2264V26.0592C33.2264 25.4765 33.6987 25.0042 34.2814 25.0042C34.8641 25.0042 35.3365 25.4765 35.3365 26.0592V29.3187C35.3365 29.9014 34.8641 30.3738 34.2814 30.3738C34.2814 30.3738 29.4069 30.3738 27.2075 30.3738V57.755Z" fill="#32499F"/>
</svg>
