<svg width="49" height="11" viewBox="0 0 49 11" fill="none" xmlns="http://www.w3.org/2000/svg">
<path d="M2.68368 5.57914V10.5753H0V0.365008H0.942927L6.07808 5.39033V0.408607H8.73268V10.5898H7.80436L2.68368 5.57914Z" fill="#026668"/>
<path d="M16.7813 7.14789V0.408802H19.2618V7.19142C19.2618 9.4281 17.3325 10.7207 15.2437 10.7207C13.1692 10.7207 11.2109 9.4281 11.2109 7.19142V0.408802H13.6914V7.14789C13.6914 7.97573 14.4892 8.3824 15.2437 8.3824C15.9979 8.3824 16.7813 7.97573 16.7813 7.14789Z" fill="#026668"/>
<path d="M26.2258 2.73135C25.6166 2.71679 24.9783 2.73135 24.369 2.73135V5.27295H26.2258C27.6329 5.27295 27.7054 2.74584 26.2258 2.73135ZM30.36 10.1967V10.5742H27.4588L25.718 7.58234H24.369V10.5742H21.7725V0.407535H26.2258C30.215 0.422024 30.9403 5.22942 28.3727 6.97236L30.36 10.1967Z" fill="#026668"/>
<path d="M36.236 4.40158L35.0899 7.07398H37.4109L36.236 4.40158ZM38.2523 9.29617H34.2486L33.6539 10.5742H31.1152V10.1967L35.6847 0.276807H36.8017L41.3857 10.1967V10.5742H38.8471L38.2523 9.29617Z" fill="#026668"/>
<path d="M45.3161 8.23592H49.0008V10.5742H42.7051V0.407535H45.3161V8.23592Z" fill="#026668"/>
</svg>
