<svg width="24" height="24" viewBox="0 0 24 24" fill="none" xmlns="http://www.w3.org/2000/svg">
<path fill-rule="evenodd" clip-rule="evenodd" d="M5.29788 0.173665L0.73137 4.7405C0.61908 4.85362 0.557617 5.00784 0.557617 5.15943V21.7273C0.557617 22.0547 0.822975 22.32 1.15033 22.32H4.46459V21.1346H1.74305V5.75215H5.71708C6.04444 5.75215 6.30979 5.48679 6.30979 5.15943V3.3283C6.30979 3.00094 6.04444 2.73558 5.71708 2.73558C5.38972 2.73558 5.12436 3.00094 5.12436 3.3283V4.56672H2.58126L5.96258 1.18543H16.1164V11.1628H17.3018V0.592714C17.3018 0.265358 17.0364 0 16.7091 0H5.71708C5.55334 0 5.40513 0.066384 5.29788 0.173665Z" fill="#18244E"/>
<rect x="6.08105" y="13.8955" width="16.8605" height="9.60465" rx="3.96512" stroke="#18244E"/>
<path d="M10.2571 20.6982L11.3466 19.0729L10.2884 17.4834H10.947L11.6793 18.6153L12.4048 17.4834H13.0679L12.0097 19.0729L13.0947 20.6982H12.4361L11.6793 19.5306L10.9202 20.6982H10.2571ZM13.6742 20.6982V17.4834H14.2122V20.1937H15.6321V20.6982H13.6742ZM17.3789 20.7652C17.1437 20.7652 16.9316 20.7243 16.7426 20.6424C16.5551 20.5606 16.4003 20.4437 16.2782 20.2919C16.1577 20.1386 16.081 19.957 16.0483 19.7472L16.6064 19.6623C16.654 19.8528 16.7515 20.0002 16.8989 20.1044C17.0477 20.2086 17.2189 20.2607 17.4124 20.2607C17.527 20.2607 17.6349 20.2428 17.7361 20.2071C17.8373 20.1714 17.9192 20.1193 17.9817 20.0508C18.0457 19.9823 18.0777 19.8982 18.0777 19.7985C18.0777 19.7539 18.0702 19.7129 18.0553 19.6757C18.0405 19.637 18.0181 19.6028 17.9884 19.573C17.9601 19.5433 17.9229 19.5165 17.8767 19.4927C17.8321 19.4674 17.78 19.4458 17.7205 19.4279L16.89 19.1823C16.8185 19.1615 16.7411 19.134 16.6578 19.0997C16.5759 19.064 16.4978 19.0156 16.4233 18.9546C16.3504 18.8921 16.2901 18.8132 16.2425 18.718C16.1964 18.6212 16.1733 18.5021 16.1733 18.3608C16.1733 18.1539 16.2254 17.9805 16.3296 17.8406C16.4353 17.6992 16.5766 17.5935 16.7538 17.5235C16.9324 17.4536 17.1303 17.4194 17.3476 17.4208C17.5679 17.4223 17.7644 17.4603 17.937 17.5347C18.1097 17.6076 18.254 17.7141 18.3701 17.854C18.4862 17.9939 18.5681 18.1628 18.6157 18.3608L18.0375 18.4612C18.0137 18.3481 17.9675 18.2521 17.8991 18.1732C17.8321 18.0928 17.7495 18.0318 17.6513 17.9901C17.5545 17.9485 17.4511 17.9261 17.3409 17.9232C17.2338 17.9217 17.134 17.9381 17.0418 17.9723C16.951 18.005 16.8773 18.0527 16.8207 18.1152C16.7657 18.1777 16.7381 18.2506 16.7381 18.334C16.7381 18.4128 16.762 18.4776 16.8096 18.5282C16.8572 18.5773 16.916 18.6168 16.986 18.6465C17.0574 18.6748 17.1296 18.6986 17.2025 18.718L17.7785 18.8787C17.8574 18.8995 17.946 18.9278 18.0442 18.9635C18.1424 18.9993 18.2369 19.0491 18.3277 19.1131C18.4185 19.1771 18.4929 19.2612 18.551 19.3654C18.6105 19.4696 18.6403 19.6021 18.6403 19.7628C18.6403 19.9295 18.6053 20.0761 18.5353 20.2026C18.4669 20.3276 18.3739 20.4318 18.2563 20.5152C18.1387 20.5985 18.004 20.661 17.8522 20.7027C17.7019 20.7444 17.5441 20.7652 17.3789 20.7652Z" fill="#18244E"/>
</svg>
