<svg width="75" height="24" viewBox="0 0 75 24" fill="none" xmlns="http://www.w3.org/2000/svg">
<path d="M8.88109 15.5V9.74H10.7171C10.7651 9.74 10.8598 9.74133 11.0011 9.744C11.1451 9.74667 11.2838 9.756 11.4171 9.772C11.8731 9.83067 12.2584 9.99333 12.5731 10.26C12.8904 10.524 13.1304 10.8613 13.2931 11.272C13.4558 11.6827 13.5371 12.132 13.5371 12.62C13.5371 13.108 13.4558 13.5573 13.2931 13.968C13.1304 14.3787 12.8904 14.7173 12.5731 14.984C12.2584 15.248 11.8731 15.4093 11.4171 15.468C11.2864 15.484 11.1491 15.4933 11.0051 15.496C10.8611 15.4987 10.7651 15.5 10.7171 15.5H8.88109ZM9.86109 14.592H10.7171C10.7971 14.592 10.8984 14.5893 11.0211 14.584C11.1464 14.5787 11.2571 14.5667 11.3531 14.548C11.6251 14.4973 11.8464 14.376 12.0171 14.184C12.1878 13.992 12.3131 13.7587 12.3931 13.484C12.4758 13.2093 12.5171 12.9213 12.5171 12.62C12.5171 12.308 12.4758 12.0147 12.3931 11.74C12.3104 11.4653 12.1824 11.2347 12.0091 11.048C11.8384 10.8613 11.6198 10.7427 11.3531 10.692C11.2571 10.6707 11.1464 10.6587 11.0211 10.656C10.8984 10.6507 10.7971 10.648 10.7171 10.648H9.86109V14.592ZM14.8027 15.5V9.74H18.5227V10.644H15.7667V12.064H18.0427V12.968H15.7667V14.596H18.5227V15.5H14.8027ZM19.8823 15.5V9.74H20.8463V14.596H23.3903V15.5H19.8823ZM24.388 15.5V9.74H28.108V10.644H25.352V12.064H27.628V12.968H25.352V14.596H28.108V15.5H24.388ZM30.7717 15.5V10.644H28.9077V9.74H33.5997V10.644H31.7357V15.5H30.7717ZM34.5592 15.5V9.74H38.2792V10.644H35.5232V12.064H37.7992V12.968H35.5232V14.596H38.2792V15.5H34.5592Z" fill="#18244E"/>
<path fill-rule="evenodd" clip-rule="evenodd" d="M52.4816 16.8H54.1616V10.4H52.4816V16.8ZM55.8416 16.8H57.5216V10.4H55.8416V16.8ZM50.8016 18.4H59.2016V8.8H50.8016V18.4ZM52.4816 7.2H57.5216V5.6H52.4816V7.2ZM59.2016 7.2V4H50.8016V7.2H46.6016V8.8H49.1216V20H60.8816V8.8H63.4016V7.2H59.2016Z" fill="#18244E"/>
</svg>
