<svg width="90" height="24" viewBox="0 0 90 24" fill="none" xmlns="http://www.w3.org/2000/svg">
<path d="M8.70578 15.5V9.74H10.5418C10.5898 9.74 10.6844 9.74133 10.8258 9.744C10.9698 9.74667 11.1084 9.756 11.2418 9.772C11.6978 9.83067 12.0831 9.99333 12.3978 10.26C12.7151 10.524 12.9551 10.8613 13.1178 11.272C13.2804 11.6827 13.3618 12.132 13.3618 12.62C13.3618 13.108 13.2804 13.5573 13.1178 13.968C12.9551 14.3787 12.7151 14.7173 12.3978 14.984C12.0831 15.248 11.6978 15.4093 11.2418 15.468C11.1111 15.484 10.9738 15.4933 10.8298 15.496C10.6858 15.4987 10.5898 15.5 10.5418 15.5H8.70578ZM9.68578 14.592H10.5418C10.6218 14.592 10.7231 14.5893 10.8458 14.584C10.9711 14.5787 11.0818 14.5667 11.1778 14.548C11.4498 14.4973 11.6711 14.376 11.8418 14.184C12.0124 13.992 12.1378 13.7587 12.2178 13.484C12.3004 13.2093 12.3418 12.9213 12.3418 12.62C12.3418 12.308 12.3004 12.0147 12.2178 11.74C12.1351 11.4653 12.0071 11.2347 11.8338 11.048C11.6631 10.8613 11.4444 10.7427 11.1778 10.692C11.0818 10.6707 10.9711 10.6587 10.8458 10.656C10.7231 10.6507 10.6218 10.648 10.5418 10.648H9.68578V14.592ZM16.9473 15.62C16.4887 15.62 16.0847 15.5267 15.7353 15.34C15.3887 15.1533 15.1167 14.8907 14.9193 14.552C14.7247 14.2133 14.6273 13.816 14.6273 13.36V9.748L15.6033 9.74V13.336C15.6033 13.552 15.6393 13.7453 15.7113 13.916C15.786 14.0867 15.886 14.232 16.0113 14.352C16.1367 14.4693 16.2807 14.5587 16.4433 14.62C16.606 14.6813 16.774 14.712 16.9473 14.712C17.126 14.712 17.2953 14.6813 17.4553 14.62C17.618 14.556 17.762 14.4653 17.8873 14.348C18.0127 14.228 18.1113 14.0827 18.1833 13.912C18.2553 13.7413 18.2913 13.5493 18.2913 13.336V9.74H19.2673V13.36C19.2673 13.816 19.1687 14.2133 18.9713 14.552C18.7767 14.8907 18.5047 15.1533 18.1553 15.34C17.8087 15.5267 17.406 15.62 16.9473 15.62ZM20.7052 15.5V9.74H23.0852C23.1412 9.74 23.2132 9.74267 23.3012 9.748C23.3892 9.75067 23.4705 9.75867 23.5452 9.772C23.8785 9.82267 24.1532 9.93333 24.3692 10.104C24.5878 10.2747 24.7492 10.4907 24.8532 10.752C24.9598 11.0107 25.0132 11.2987 25.0132 11.616C25.0132 11.9307 24.9598 12.2187 24.8532 12.48C24.7465 12.7387 24.5838 12.9533 24.3652 13.124C24.1492 13.2947 23.8758 13.4053 23.5452 13.456C23.4705 13.4667 23.3878 13.4747 23.2972 13.48C23.2092 13.4853 23.1385 13.488 23.0852 13.488H21.6692V15.5H20.7052ZM21.6692 12.588H23.0452C23.0985 12.588 23.1585 12.5853 23.2252 12.58C23.2918 12.5747 23.3532 12.564 23.4092 12.548C23.5692 12.508 23.6945 12.4373 23.7852 12.336C23.8785 12.2347 23.9438 12.12 23.9812 11.992C24.0212 11.864 24.0412 11.7387 24.0412 11.616C24.0412 11.4933 24.0212 11.368 23.9812 11.24C23.9438 11.1093 23.8785 10.9933 23.7852 10.892C23.6945 10.7907 23.5692 10.72 23.4092 10.68C23.3532 10.664 23.2918 10.6547 23.2252 10.652C23.1585 10.6467 23.0985 10.644 23.0452 10.644H21.6692V12.588ZM26.2145 15.5V9.74H27.1785V14.596H29.7225V15.5H26.2145ZM30.8002 15.5V9.74H31.7642V15.5H30.8002ZM35.7183 15.62C35.1423 15.62 34.649 15.4947 34.2383 15.244C33.8277 14.9907 33.5117 14.6387 33.2903 14.188C33.0717 13.7373 32.9623 13.2147 32.9623 12.62C32.9623 12.0253 33.0717 11.5027 33.2903 11.052C33.5117 10.6013 33.8277 10.2507 34.2383 10C34.649 9.74667 35.1423 9.62 35.7183 9.62C36.3823 9.62 36.9357 9.78667 37.3783 10.12C37.821 10.4507 38.1317 10.8973 38.3103 11.46L37.3383 11.728C37.2263 11.352 37.0357 11.0587 36.7663 10.848C36.497 10.6347 36.1477 10.528 35.7183 10.528C35.3317 10.528 35.009 10.6147 34.7503 10.788C34.4943 10.9613 34.301 11.2053 34.1703 11.52C34.0423 11.832 33.977 12.1987 33.9743 12.62C33.9743 13.0413 34.0383 13.4093 34.1663 13.724C34.297 14.036 34.4917 14.2787 34.7503 14.452C35.009 14.6253 35.3317 14.712 35.7183 14.712C36.1477 14.712 36.497 14.6053 36.7663 14.392C37.0357 14.1787 37.2263 13.8853 37.3383 13.512L38.3103 13.78C38.1317 14.3427 37.821 14.7907 37.3783 15.124C36.9357 15.4547 36.3823 15.62 35.7183 15.62ZM38.9523 15.5L40.7683 9.74H42.1803L43.9963 15.5H43.0043L41.3563 10.332H41.5723L39.9443 15.5H38.9523ZM39.9643 14.252V13.352H42.9883V14.252H39.9643ZM45.947 15.5V10.644H44.083V9.74H48.775V10.644H46.911V15.5H45.947ZM49.7345 15.5V9.74H53.4545V10.644H50.6985V12.064H52.9745V12.968H50.6985V14.596H53.4545V15.5H49.7345Z" fill="#18244E"/>
<path d="M64.25 4C63.6533 4 63.081 4.23705 62.659 4.65901C62.2371 5.08097 62 5.65326 62 6.25V13.75C62 14.3467 62.2371 14.919 62.659 15.341C63.081 15.7629 63.6533 16 64.25 16H64.5C64.6989 16 64.8897 15.921 65.0303 15.7803C65.171 15.6397 65.25 15.4489 65.25 15.25C65.25 15.0511 65.171 14.8603 65.0303 14.7197C64.8897 14.579 64.6989 14.5 64.5 14.5H64.25C64.0511 14.5 63.8603 14.421 63.7197 14.2803C63.579 14.1397 63.5 13.9489 63.5 13.75V6.25C63.5 6.05109 63.579 5.86032 63.7197 5.71967C63.8603 5.57902 64.0511 5.5 64.25 5.5H71.75C71.9489 5.5 72.1397 5.57902 72.2803 5.71967C72.421 5.86032 72.5 6.05109 72.5 6.25V6.5C72.5 6.69891 72.579 6.88968 72.7197 7.03033C72.8603 7.17098 73.0511 7.25 73.25 7.25C73.4489 7.25 73.6397 7.17098 73.7803 7.03033C73.921 6.88968 74 6.69891 74 6.5V6.25C74 5.65326 73.7629 5.08097 73.341 4.65901C72.919 4.23705 72.3467 4 71.75 4H64.25Z" fill="#18244E"/>
<path fill-rule="evenodd" clip-rule="evenodd" d="M68.25 8C67.6533 8 67.081 8.23705 66.659 8.65901C66.2371 9.08097 66 9.65326 66 10.25V17.75C66 18.3467 66.2371 18.919 66.659 19.341C67.081 19.7629 67.6533 20 68.25 20H75.75C76.3467 20 76.919 19.7629 77.341 19.341C77.7629 18.919 78 18.3467 78 17.75V10.25C78 9.65326 77.7629 9.08097 77.341 8.65901C76.919 8.23705 76.3467 8 75.75 8H68.25ZM67.5 10.25C67.5 10.0511 67.579 9.86032 67.7197 9.71967C67.8603 9.57902 68.0511 9.5 68.25 9.5H75.75C75.9489 9.5 76.1397 9.57902 76.2803 9.71967C76.421 9.86032 76.5 10.0511 76.5 10.25V17.75C76.5 17.9489 76.421 18.1397 76.2803 18.2803C76.1397 18.421 75.9489 18.5 75.75 18.5H68.25C68.0511 18.5 67.8603 18.421 67.7197 18.2803C67.579 18.1397 67.5 17.9489 67.5 17.75V10.25Z" fill="#18244E"/>
</svg>
