<svg width="25" height="12" viewBox="0 0 25 12" fill="none" xmlns="http://www.w3.org/2000/svg">
<path fill-rule="evenodd" clip-rule="evenodd" d="M12.8832 0.544922C10.6411 0.544922 8.67822 1.88745 7.32942 3.12968C6.64419 3.76077 6.09152 4.38999 5.71019 4.86099C5.51916 5.09689 5.37017 5.29432 5.26808 5.43405C5.21701 5.50396 5.17762 5.55948 5.1505 5.59827C5.13694 5.61767 5.12644 5.63286 5.11909 5.64361L5.11042 5.6563L5.10786 5.6601L4.88672 6.01068L5.10704 6.33871L5.10786 6.33992L5.11042 6.34372L5.11909 6.35641C5.12644 6.36716 5.13694 6.38235 5.1505 6.40175C5.17762 6.44054 5.21701 6.49606 5.26808 6.56597C5.37017 6.7057 5.51916 6.90313 5.71019 7.13903C6.09152 7.61003 6.64419 8.23926 7.32942 8.87036C8.67822 10.1126 10.6411 11.4551 12.8832 11.4551C15.1252 11.4551 17.088 10.1126 18.4369 8.87036C19.1221 8.23926 19.6748 7.61003 20.0561 7.13903C20.2471 6.90313 20.3961 6.7057 20.4982 6.56597C20.5492 6.49606 20.5887 6.44054 20.6157 6.40175C20.6293 6.38235 20.6398 6.36716 20.6472 6.35641L20.6558 6.34372L20.6584 6.33992L20.6595 6.33831L20.8867 6.00001L20.6592 5.66131L20.6584 5.6601L20.6558 5.6563L20.6472 5.64361C20.6398 5.63286 20.6293 5.61767 20.6157 5.59827C20.5887 5.55948 20.5492 5.50396 20.4982 5.43405C20.3961 5.29432 20.2471 5.09689 20.0561 4.86099C19.6748 4.38999 19.1221 3.76077 18.4369 3.12968C17.088 1.88745 15.1252 0.544922 12.8832 0.544922ZM10.3913 3.80338C9.73978 4.46712 9.41401 5.2636 9.41401 6.19284C9.38988 7.14621 9.71565 7.94873 10.3913 8.6004C11.067 9.25207 11.8694 9.58394 12.7985 9.59601C13.7275 9.60807 14.5299 9.27621 15.2056 8.6004C15.8813 7.92459 16.2131 7.12207 16.201 6.19284C16.1889 5.2636 15.8571 4.46712 15.2056 3.80338C14.554 3.13964 13.7516 2.80777 12.7985 2.80777C11.8453 2.80777 11.0429 3.13964 10.3913 3.80338ZM11.2058 7.80391C10.7593 7.3574 10.5361 6.82037 10.5361 6.19284H12.7985L11.2058 4.59986C11.6522 4.11715 12.1831 3.89389 12.7985 3.93009C13.4138 3.9663 13.9447 4.18955 14.3911 4.59986C14.8376 5.01018 15.0608 5.54117 15.0608 6.19284C15.0608 6.84451 14.8376 7.38153 14.3911 7.80391C13.9447 8.22629 13.4138 8.44351 12.7985 8.45558C12.1831 8.46765 11.6522 8.25043 11.2058 7.80391Z" fill="#32499F"/>
</svg>
