<svg width="16" height="16" viewBox="0 0 16 16" fill="none" xmlns="http://www.w3.org/2000/svg">
<path fill-rule="evenodd" clip-rule="evenodd" d="M12.027 9.92L16 13.95L14 16L9.925 12.024C8.89722 12.6636 7.71053 13.0017 6.5 13C2.91 13 0 10.083 0 6.5C0 2.91 2.917 0 6.5 0C10.09 0 13 2.917 13 6.5C13.0018 7.70855 12.6647 8.8934 12.027 9.92ZM1.997 6.452C1.997 8.932 4.011 10.952 6.497 10.952C8.977 10.952 10.997 8.937 10.997 6.452C10.997 3.972 8.982 1.952 6.497 1.952C4.017 1.952 1.997 3.966 1.997 6.452Z" fill="#18244E"/>
</svg>
