<svg width="106" height="24" viewBox="0 0 106 24" fill="none" xmlns="http://www.w3.org/2000/svg">
<path d="M11.0614 15.62C10.6027 15.62 10.1987 15.5267 9.84941 15.34C9.50274 15.1533 9.23074 14.8907 9.03341 14.552C8.83874 14.2133 8.74141 13.816 8.74141 13.36V9.748L9.71741 9.74V13.336C9.71741 13.552 9.75341 13.7453 9.82541 13.916C9.90007 14.0867 10.0001 14.232 10.1254 14.352C10.2507 14.4693 10.3947 14.5587 10.5574 14.62C10.7201 14.6813 10.8881 14.712 11.0614 14.712C11.2401 14.712 11.4094 14.6813 11.5694 14.62C11.7321 14.556 11.8761 14.4653 12.0014 14.348C12.1267 14.228 12.2254 14.0827 12.2974 13.912C12.3694 13.7413 12.4054 13.5493 12.4054 13.336V9.74H13.3814V13.36C13.3814 13.816 13.2827 14.2133 13.0854 14.552C12.8907 14.8907 12.6187 15.1533 12.2694 15.34C11.9227 15.5267 11.5201 15.62 11.0614 15.62ZM14.8192 15.5V9.74H17.1992C17.2552 9.74 17.3272 9.74267 17.4152 9.748C17.5032 9.75067 17.5846 9.75867 17.6592 9.772C17.9926 9.82267 18.2672 9.93333 18.4832 10.104C18.7019 10.2747 18.8632 10.4907 18.9672 10.752C19.0739 11.0107 19.1272 11.2987 19.1272 11.616C19.1272 11.9307 19.0739 12.2187 18.9672 12.48C18.8606 12.7387 18.6979 12.9533 18.4792 13.124C18.2632 13.2947 17.9899 13.4053 17.6592 13.456C17.5846 13.4667 17.5019 13.4747 17.4112 13.48C17.3232 13.4853 17.2526 13.488 17.1992 13.488H15.7832V15.5H14.8192ZM15.7832 12.588H17.1592C17.2126 12.588 17.2726 12.5853 17.3392 12.58C17.4059 12.5747 17.4672 12.564 17.5232 12.548C17.6832 12.508 17.8086 12.4373 17.8992 12.336C17.9926 12.2347 18.0579 12.12 18.0952 11.992C18.1352 11.864 18.1552 11.7387 18.1552 11.616C18.1552 11.4933 18.1352 11.368 18.0952 11.24C18.0579 11.1093 17.9926 10.9933 17.8992 10.892C17.8086 10.7907 17.6832 10.72 17.5232 10.68C17.4672 10.664 17.4059 10.6547 17.3392 10.652C17.2726 10.6467 17.2126 10.644 17.1592 10.644H15.7832V12.588ZM20.3286 15.5V9.74H21.2926V14.596H23.8366V15.5H20.3286ZM27.114 15.62C26.538 15.62 26.0446 15.4947 25.634 15.244C25.2233 14.9907 24.9073 14.6387 24.686 14.188C24.4673 13.7373 24.358 13.2147 24.358 12.62C24.358 12.0253 24.4673 11.5027 24.686 11.052C24.9073 10.6013 25.2233 10.2507 25.634 10C26.0446 9.74667 26.538 9.62 27.114 9.62C27.69 9.62 28.1833 9.74667 28.594 10C29.0073 10.2507 29.3233 10.6013 29.542 11.052C29.7633 11.5027 29.874 12.0253 29.874 12.62C29.874 13.2147 29.7633 13.7373 29.542 14.188C29.3233 14.6387 29.0073 14.9907 28.594 15.244C28.1833 15.4947 27.69 15.62 27.114 15.62ZM27.114 14.712C27.5006 14.7147 27.822 14.6293 28.078 14.456C28.3366 14.2827 28.53 14.0387 28.658 13.724C28.7886 13.4093 28.854 13.0413 28.854 12.62C28.854 12.1987 28.7886 11.8333 28.658 11.524C28.53 11.212 28.3366 10.9693 28.078 10.796C27.822 10.6227 27.5006 10.5333 27.114 10.528C26.7273 10.5253 26.406 10.6107 26.15 10.784C25.894 10.9573 25.7006 11.2013 25.57 11.516C25.442 11.8307 25.378 12.1987 25.378 12.62C25.378 13.0413 25.442 13.408 25.57 13.72C25.698 14.0293 25.89 14.2707 26.146 14.444C26.4046 14.6173 26.7273 14.7067 27.114 14.712ZM30.4339 15.5L32.2499 9.74H33.6619L35.4779 15.5H34.4859L32.8379 10.332H33.0539L31.4259 15.5H30.4339ZM31.4459 14.252V13.352H34.4699V14.252H31.4459ZM36.5211 15.5V9.74H38.3571C38.4051 9.74 38.4998 9.74133 38.6411 9.744C38.7851 9.74667 38.9238 9.756 39.0571 9.772C39.5131 9.83067 39.8984 9.99333 40.2131 10.26C40.5304 10.524 40.7704 10.8613 40.9331 11.272C41.0958 11.6827 41.1771 12.132 41.1771 12.62C41.1771 13.108 41.0958 13.5573 40.9331 13.968C40.7704 14.3787 40.5304 14.7173 40.2131 14.984C39.8984 15.248 39.5131 15.4093 39.0571 15.468C38.9264 15.484 38.7891 15.4933 38.6451 15.496C38.5011 15.4987 38.4051 15.5 38.3571 15.5H36.5211ZM37.5011 14.592H38.3571C38.4371 14.592 38.5384 14.5893 38.6611 14.584C38.7864 14.5787 38.8971 14.5667 38.9931 14.548C39.2651 14.4973 39.4864 14.376 39.6571 14.184C39.8278 13.992 39.9531 13.7587 40.0331 13.484C40.1158 13.2093 40.1571 12.9213 40.1571 12.62C40.1571 12.308 40.1158 12.0147 40.0331 11.74C39.9504 11.4653 39.8224 11.2347 39.6491 11.048C39.4784 10.8613 39.2598 10.7427 38.9931 10.692C38.8971 10.6707 38.7864 10.6587 38.6611 10.656C38.5384 10.6507 38.4371 10.648 38.3571 10.648H37.5011V14.592ZM44.3642 15.5V9.74H45.2322L47.2242 13.82L49.2162 9.74H50.0842V15.5H49.1842V11.808L47.4162 15.5H47.0322L45.2682 11.808V15.5H44.3642ZM51.528 15.5V9.74H55.248V10.644H52.492V12.064H54.768V12.968H52.492V14.596H55.248V15.5H51.528ZM56.5277 15.5V9.74H58.3637C58.4117 9.74 58.5063 9.74133 58.6477 9.744C58.7917 9.74667 58.9303 9.756 59.0637 9.772C59.5197 9.83067 59.905 9.99333 60.2197 10.26C60.537 10.524 60.777 10.8613 60.9397 11.272C61.1023 11.6827 61.1837 12.132 61.1837 12.62C61.1837 13.108 61.1023 13.5573 60.9397 13.968C60.777 14.3787 60.537 14.7173 60.2197 14.984C59.905 15.248 59.5197 15.4093 59.0637 15.468C58.933 15.484 58.7957 15.4933 58.6517 15.496C58.5077 15.4987 58.4117 15.5 58.3637 15.5H56.5277ZM57.5077 14.592H58.3637C58.4437 14.592 58.545 14.5893 58.6677 14.584C58.793 14.5787 58.9037 14.5667 58.9997 14.548C59.2717 14.4973 59.493 14.376 59.6637 14.184C59.8343 13.992 59.9597 13.7587 60.0397 13.484C60.1223 13.2093 60.1637 12.9213 60.1637 12.62C60.1637 12.308 60.1223 12.0147 60.0397 11.74C59.957 11.4653 59.829 11.2347 59.6557 11.048C59.485 10.8613 59.2663 10.7427 58.9997 10.692C58.9037 10.6707 58.793 10.6587 58.6677 10.656C58.545 10.6507 58.4437 10.648 58.3637 10.648H57.5077V14.592ZM62.5292 15.5V9.74H63.4932V15.5H62.5292ZM64.6114 15.5L66.4274 9.74H67.8394L69.6554 15.5H68.6634L67.0154 10.332H67.2314L65.6034 15.5H64.6114ZM65.6234 14.252V13.352H68.6474V14.252H65.6234Z" fill="#18244E"/>
<path fill-rule="evenodd" clip-rule="evenodd" d="M82.7476 20C81.3424 20 80.0207 19.4527 79.0268 18.4589C76.9754 16.4074 76.9754 13.0687 79.0268 11.0173L86.0442 4L87.1396 5.09627L80.1222 12.1127C78.6749 13.5609 78.6749 15.9161 80.1222 17.3635C80.8236 18.0648 81.7563 18.4511 82.7476 18.4511C83.7389 18.4511 84.6717 18.0648 85.373 17.3635L92.3154 10.421C93.1785 9.55792 93.1785 8.15446 92.3154 7.29138C91.479 6.45412 90.0205 6.45671 89.1858 7.29052L82.3871 14.0841C82.2442 14.227 82.1659 14.4171 82.1659 14.6193C82.1659 14.8216 82.2442 15.0117 82.3879 15.1546C82.6736 15.4428 83.1736 15.4411 83.4592 15.1546L89.1669 9.44778L90.2623 10.544L84.5555 16.2508C83.6546 17.15 82.1917 17.1483 81.2925 16.2508C80.3933 15.3516 80.3933 13.8871 81.2925 12.9887L88.0913 6.19598C88.8003 5.48607 89.746 5.09455 90.7511 5.09455C91.7552 5.09455 92.7001 5.48521 93.4117 6.19598C94.878 7.66312 94.878 10.0501 93.4117 11.5173L86.4684 18.4589C85.4745 19.4527 84.1537 20 82.7476 20Z" fill="#18244E"/>
</svg>
