<svg width="17" height="16" viewBox="0 0 17 16" fill="none" xmlns="http://www.w3.org/2000/svg">
<path fill-rule="evenodd" clip-rule="evenodd" d="M12.527 9.92L16.5 13.95L14.5 16L10.425 12.024C9.39722 12.6636 8.21053 13.0017 7 13C3.41 13 0.5 10.083 0.5 6.5C0.5 2.91 3.417 0 7 0C10.59 0 13.5 2.917 13.5 6.5C13.5018 7.70855 13.1647 8.8934 12.527 9.92ZM2.497 6.452C2.497 8.932 4.511 10.952 6.997 10.952C9.477 10.952 11.497 8.937 11.497 6.452C11.497 3.972 9.482 1.952 6.997 1.952C4.517 1.952 2.497 3.966 2.497 6.452Z" fill="#E2E7F6"/>
</svg>
