<svg width="19" height="17" viewBox="0 0 19 17" fill="none" xmlns="http://www.w3.org/2000/svg">
<path fill-rule="evenodd" clip-rule="evenodd" d="M10.0199 0.5C8.36938 0.5 6.81597 1.15041 5.65058 2.32795L5.39734 2.58382L6.82241 4.02288L7.08079 3.76196C7.8669 2.96814 8.90964 2.53187 10.0199 2.53187C12.13 2.53187 13.883 4.1315 14.1443 6.19861L13.0604 5.10405L11.6352 6.54319L15.1875 10.1303L18.7398 6.54319L17.3147 5.10405L16.1787 6.25112C15.9337 3.04075 13.2679 0.5 10.0199 0.5ZM7.36625 10.4568L3.81399 6.86966L0.261719 10.4568L1.68686 11.896L2.82277 10.7489C3.06783 13.9593 5.7336 16.5 8.98161 16.5C10.6321 16.5 12.1855 15.8496 13.3509 14.6721L13.6042 14.4162L12.1791 12.9771L11.9207 13.238C11.1346 14.0319 10.0919 14.4681 8.98161 14.4681C6.87152 14.4681 5.11854 12.8685 4.85719 10.8014L5.94111 11.896L7.36625 10.4568Z" fill="#8A282A"/>
</svg>
