<svg width="129" height="24" viewBox="0 0 129 24" fill="none" xmlns="http://www.w3.org/2000/svg">
<path d="M11.3433 15.62C10.8846 15.62 10.4806 15.5267 10.1313 15.34C9.78461 15.1533 9.51261 14.8907 9.31528 14.552C9.12061 14.2133 9.02328 13.816 9.02328 13.36V9.748L9.99928 9.74V13.336C9.99928 13.552 10.0353 13.7453 10.1073 13.916C10.1819 14.0867 10.2819 14.232 10.4073 14.352C10.5326 14.4693 10.6766 14.5587 10.8393 14.62C11.0019 14.6813 11.1699 14.712 11.3433 14.712C11.5219 14.712 11.6913 14.6813 11.8513 14.62C12.0139 14.556 12.1579 14.4653 12.2833 14.348C12.4086 14.228 12.5073 14.0827 12.5793 13.912C12.6513 13.7413 12.6873 13.5493 12.6873 13.336V9.74H13.6633V13.36C13.6633 13.816 13.5646 14.2133 13.3673 14.552C13.1726 14.8907 12.9006 15.1533 12.5513 15.34C12.2046 15.5267 11.8019 15.62 11.3433 15.62ZM15.1011 15.5V9.74L17.4811 9.74C17.5371 9.74 17.6091 9.74267 17.6971 9.748C17.7851 9.75067 17.8664 9.75867 17.9411 9.772C18.2744 9.82267 18.5491 9.93333 18.7651 10.104C18.9838 10.2747 19.1451 10.4907 19.2491 10.752C19.3558 11.0107 19.4091 11.2987 19.4091 11.616C19.4091 11.9307 19.3558 12.2187 19.2491 12.48C19.1424 12.7387 18.9798 12.9533 18.7611 13.124C18.5451 13.2947 18.2718 13.4053 17.9411 13.456C17.8664 13.4667 17.7838 13.4747 17.6931 13.48C17.6051 13.4853 17.5344 13.488 17.4811 13.488H16.0651V15.5L15.1011 15.5ZM16.0651 12.588H17.4411C17.4944 12.588 17.5544 12.5853 17.6211 12.58C17.6878 12.5747 17.7491 12.564 17.8051 12.548C17.9651 12.508 18.0904 12.4373 18.1811 12.336C18.2744 12.2347 18.3398 12.12 18.3771 11.992C18.4171 11.864 18.4371 11.7387 18.4371 11.616C18.4371 11.4933 18.4171 11.368 18.3771 11.24C18.3398 11.1093 18.2744 10.9933 18.1811 10.892C18.0904 10.7907 17.9651 10.72 17.8051 10.68C17.7491 10.664 17.6878 10.6547 17.6211 10.652C17.5544 10.6467 17.4944 10.644 17.4411 10.644H16.0651V12.588ZM20.6105 15.5V9.74H21.5745V14.596H24.1185V15.5H20.6105ZM27.3958 15.62C26.8198 15.62 26.3265 15.4947 25.9158 15.244C25.5052 14.9907 25.1892 14.6387 24.9678 14.188C24.7492 13.7373 24.6398 13.2147 24.6398 12.62C24.6398 12.0253 24.7492 11.5027 24.9678 11.052C25.1892 10.6013 25.5052 10.2507 25.9158 10C26.3265 9.74667 26.8198 9.62 27.3958 9.62C27.9718 9.62 28.4652 9.74667 28.8758 10C29.2892 10.2507 29.6052 10.6013 29.8238 11.052C30.0452 11.5027 30.1558 12.0253 30.1558 12.62C30.1558 13.2147 30.0452 13.7373 29.8238 14.188C29.6052 14.6387 29.2892 14.9907 28.8758 15.244C28.4652 15.4947 27.9718 15.62 27.3958 15.62ZM27.3958 14.712C27.7825 14.7147 28.1038 14.6293 28.3598 14.456C28.6185 14.2827 28.8118 14.0387 28.9398 13.724C29.0705 13.4093 29.1358 13.0413 29.1358 12.62C29.1358 12.1987 29.0705 11.8333 28.9398 11.524C28.8118 11.212 28.6185 10.9693 28.3598 10.796C28.1038 10.6227 27.7825 10.5333 27.3958 10.528C27.0092 10.5253 26.6878 10.6107 26.4318 10.784C26.1758 10.9573 25.9825 11.2013 25.8518 11.516C25.7238 11.8307 25.6598 12.1987 25.6598 12.62C25.6598 13.0413 25.7238 13.408 25.8518 13.72C25.9798 14.0293 26.1718 14.2707 26.4278 14.444C26.6865 14.6173 27.0092 14.7067 27.3958 14.712ZM30.7158 15.5L32.5318 9.74H33.9438L35.7598 15.5H34.7678L33.1198 10.332H33.3358L31.7078 15.5H30.7158ZM31.7278 14.252V13.352H34.7518V14.252H31.7278ZM36.803 15.5V9.74H38.639C38.687 9.74 38.7816 9.74133 38.923 9.744C39.067 9.74667 39.2056 9.756 39.339 9.772C39.795 9.83067 40.1803 9.99333 40.495 10.26C40.8123 10.524 41.0523 10.8613 41.215 11.272C41.3776 11.6827 41.459 12.132 41.459 12.62C41.459 13.108 41.3776 13.5573 41.215 13.968C41.0523 14.3787 40.8123 14.7173 40.495 14.984C40.1803 15.248 39.795 15.4093 39.339 15.468C39.2083 15.484 39.071 15.4933 38.927 15.496C38.783 15.4987 38.687 15.5 38.639 15.5H36.803ZM37.783 14.592H38.639C38.719 14.592 38.8203 14.5893 38.943 14.584C39.0683 14.5787 39.179 14.5667 39.275 14.548C39.547 14.4973 39.7683 14.376 39.939 14.184C40.1096 13.992 40.235 13.7587 40.315 13.484C40.3976 13.2093 40.439 12.9213 40.439 12.62C40.439 12.308 40.3976 12.0147 40.315 11.74C40.2323 11.4653 40.1043 11.2347 39.931 11.048C39.7603 10.8613 39.5416 10.7427 39.275 10.692C39.179 10.6707 39.0683 10.6587 38.943 10.656C38.8203 10.6507 38.719 10.648 38.639 10.648H37.783V14.592ZM46.0301 15.5V10.644H44.1661V9.74L48.8581 9.74V10.644L46.9941 10.644V15.5H46.0301ZM49.8177 15.5V9.74H50.7817V12.164H53.5097V9.74H54.4697V15.5H53.5097V13.068H50.7817V15.5H49.8177ZM58.2311 15.62C57.7724 15.62 57.3684 15.5267 57.0191 15.34C56.6724 15.1533 56.4004 14.8907 56.2031 14.552C56.0084 14.2133 55.9111 13.816 55.9111 13.36V9.748L56.8871 9.74V13.336C56.8871 13.552 56.9231 13.7453 56.9951 13.916C57.0698 14.0867 57.1698 14.232 57.2951 14.352C57.4204 14.4693 57.5644 14.5587 57.7271 14.62C57.8898 14.6813 58.0578 14.712 58.2311 14.712C58.4098 14.712 58.5791 14.6813 58.7391 14.62C58.9018 14.556 59.0458 14.4653 59.1711 14.348C59.2964 14.228 59.3951 14.0827 59.4671 13.912C59.5391 13.7413 59.5751 13.5493 59.5751 13.336V9.74H60.5511V13.36C60.5511 13.816 60.4524 14.2133 60.2551 14.552C60.0604 14.8907 59.7884 15.1533 59.4391 15.34C59.0924 15.5267 58.6898 15.62 58.2311 15.62ZM61.9889 15.5V9.74H62.8569L64.8489 13.82L66.8409 9.74H67.7089V15.5H66.8089V11.808L65.0409 15.5H64.6569L62.8929 11.808V15.5H61.9889ZM69.1527 15.5V9.74H71.4367C71.826 9.74 72.1447 9.81867 72.3927 9.976C72.6433 10.1307 72.8287 10.3293 72.9487 10.572C73.0713 10.8147 73.1327 11.0653 73.1327 11.324C73.1327 11.6413 73.0567 11.9107 72.9047 12.132C72.7553 12.3533 72.5513 12.5027 72.2927 12.58V12.38C72.6553 12.4627 72.93 12.6347 73.1167 12.896C73.306 13.1573 73.4007 13.4547 73.4007 13.788C73.4007 14.1293 73.3353 14.428 73.2047 14.684C73.074 14.94 72.8793 15.14 72.6207 15.284C72.3647 15.428 72.0473 15.5 71.6687 15.5H69.1527ZM70.1287 14.592H71.5487C71.7167 14.592 71.8673 14.5587 72.0007 14.492C72.134 14.4227 72.238 14.3267 72.3127 14.204C72.39 14.0787 72.4287 13.9307 72.4287 13.76C72.4287 13.6053 72.3953 13.4667 72.3287 13.344C72.262 13.2213 72.1647 13.124 72.0367 13.052C71.9087 12.9773 71.7553 12.94 71.5767 12.94H70.1287V14.592ZM70.1287 12.04H71.4247C71.5633 12.04 71.6873 12.0133 71.7967 11.96C71.906 11.9067 71.9927 11.828 72.0567 11.724C72.1207 11.62 72.1527 11.492 72.1527 11.34C72.1527 11.14 72.0887 10.9733 71.9607 10.84C71.8327 10.7067 71.654 10.64 71.4247 10.64H70.1287V12.04ZM74.5195 15.5V9.74L75.4955 9.74L78.1675 13.8V9.74H79.1435V15.5H78.1675L75.4955 11.44V15.5H74.5195ZM80.1817 15.5L81.9977 9.74H83.4097L85.2257 15.5H84.2337L82.5857 10.332H82.8017L81.1737 15.5H80.1817ZM81.1937 14.252V13.352L84.2177 13.352V14.252L81.1937 14.252ZM86.3489 15.5V9.74H87.3129V15.5H86.3489ZM88.9111 15.5V9.74H89.8751V14.596H92.4191V15.5H88.9111Z" fill="#18244E"/>
<path fill-rule="evenodd" clip-rule="evenodd" d="M105.748 20C104.342 20 103.021 19.4527 102.027 18.4589C99.9754 16.4074 99.9754 13.0687 102.027 11.0173L109.044 4L110.14 5.09627L103.122 12.1127C101.675 13.5609 101.675 15.9161 103.122 17.3635C103.824 18.0648 104.756 18.4511 105.748 18.4511C106.739 18.4511 107.672 18.0648 108.373 17.3635L115.315 10.421C116.179 9.55792 116.179 8.15446 115.315 7.29138C114.479 6.45412 113.02 6.45671 112.186 7.29052L105.387 14.0841C105.244 14.227 105.166 14.4171 105.166 14.6193C105.166 14.8216 105.244 15.0117 105.388 15.1546C105.674 15.4428 106.174 15.4411 106.459 15.1546L112.167 9.44778L113.262 10.544L107.556 16.2508C106.655 17.15 105.192 17.1483 104.293 16.2508C103.393 15.3516 103.393 13.8871 104.293 12.9887L111.091 6.19598C111.8 5.48607 112.746 5.09455 113.751 5.09455C114.755 5.09455 115.7 5.48521 116.412 6.19598C117.878 7.66312 117.878 10.0501 116.412 11.5173L109.468 18.4589C108.475 19.4527 107.154 20 105.748 20Z" fill="#18244E"/>
</svg>
