<svg width="18" height="16" viewBox="0 0 18 16" fill="none" xmlns="http://www.w3.org/2000/svg">
<path fill-rule="evenodd" clip-rule="evenodd" d="M5.74761 16C4.34243 16 3.02071 15.4527 2.02684 14.4589C-0.0245724 12.4074 -0.0245724 9.06873 2.02684 7.01732L9.04416 0L10.1396 1.09627L3.12225 8.11272C1.6749 9.56093 1.6749 11.9161 3.12225 13.3635C3.82355 14.0648 4.75632 14.4511 5.74761 14.4511C6.7389 14.4511 7.67167 14.0648 8.37297 13.3635L15.3154 6.421C16.1785 5.55792 16.1785 4.15446 15.3154 3.29138C14.479 2.45412 13.0205 2.45671 12.1858 3.29052L5.38707 10.0841C5.24422 10.227 5.16592 10.4171 5.16592 10.6193C5.16592 10.8216 5.24422 11.0117 5.38793 11.1546C5.67361 11.4428 6.17356 11.4411 6.45924 11.1546L12.1669 5.44778L13.2623 6.54405L7.55551 12.2508C6.65457 13.15 5.19173 13.1483 4.29252 12.2508C3.3933 11.3516 3.3933 9.88706 4.29252 8.98871L11.0913 2.19598C11.8003 1.48607 12.746 1.09455 13.7511 1.09455C14.7552 1.09455 15.7001 1.48521 16.4117 2.19598C17.878 3.66312 17.878 6.05012 16.4117 7.51726L9.46838 14.4589C8.47451 15.4527 7.15366 16 5.74761 16Z" fill="#18244E"/>
</svg>
